<?xml version="1.0" encoding="UTF-8"?>
<!-- Generator: Adobe Illustrator 16.0.4, SVG Export Plug-In . SVG Version: 6.00 Build 0)  -->
<!DOCTYPE svg PUBLIC "-//W3C//DTD SVG 1.1//EN" "http://www.w3.org/Graphics/SVG/1.1/DTD/svg11.dtd">
<svg version="1.1" id="Capa_1" xmlns="http://www.w3.org/2000/svg" xmlns:xlink="http://www.w3.org/1999/xlink" x="0px" y="0px" width="590.852px" height="601.14px" viewBox="0 0 590.852 601.14" enable-background="new 0 0 590.852 601.14" xml:space="preserve">
<g>
	<g>
		<path fill="#FF931E" d="M410.02,391.521c38.056-41.197,61.797-96.361,61.797-157.111c0-127.437-103.693-231.479-231.479-231.479    C112.554,2.93,8.86,106.973,8.86,234.41c0,127.436,103.694,231.479,231.479,231.479c52.022,0,99.854-17.107,138.607-46.088    l172.125,172.125c4.189,4.189,9.427,6.285,14.664,6.285c5.236,0,10.822-2.096,14.663-6.285c8.031-8.029,8.031-21.297,0-29.676    L410.02,391.521z M50.756,234.41c0-104.394,84.842-189.583,189.582-189.583c104.394,0,189.583,84.84,189.583,189.583    c0,104.742-84.842,189.582-189.583,189.582C135.597,423.992,50.756,338.802,50.756,234.41z"/>
	</g>
</g>
</svg>