<?xml version="1.0" encoding="UTF-8"?>
<!-- Generator: Adobe Illustrator 16.0.4, SVG Export Plug-In . SVG Version: 6.00 Build 0)  -->
<!DOCTYPE svg PUBLIC "-//W3C//DTD SVG 1.0//EN" "http://www.w3.org/TR/2001/REC-SVG-20010904/DTD/svg10.dtd">
<svg version="1.0" id="Capa_1" xmlns="http://www.w3.org/2000/svg" xmlns:xlink="http://www.w3.org/1999/xlink" x="0px" y="0px" width="595.279px" height="600.14px" viewBox="0 118.445 595.279 600.14" enable-background="new 0 118.445 595.279 600.14" xml:space="preserve">
<g>
	<g>
		<path fill="#DDDDDD" d="M218.006,595.593l-30.121,29.913c-26.11,25.88-68.576,25.902-94.672,0    c-12.545-12.449-19.436-28.982-19.436-46.559c0-17.575,6.897-34.117,19.429-46.565l110.871-110.001    c22.978-22.784,66.202-56.335,97.707-25.091c14.458,14.361,37.808,14.265,52.161-0.186c14.361-14.45,14.272-37.808-0.186-52.154    c-53.553-53.144-132.703-43.322-201.636,25.076L41.245,480.034C14.644,506.442,0,541.563,0,578.947s14.644,72.498,41.253,98.906    c27.375,27.159,63.322,40.731,99.285,40.731c35.97,0,71.932-13.572,99.322-40.747l30.144-29.92    c14.45-14.346,14.532-37.696,0.171-52.154C255.836,581.321,232.464,581.239,218.006,595.593z M554.012,168.278    c-57.519-57.072-137.941-60.168-191.188-7.337l-37.548,37.272c-14.458,14.354-14.547,37.696-0.186,52.154    c14.36,14.458,37.711,14.54,52.169,0.186l37.532-37.25c27.584-27.39,63.702-16.035,87.261,7.337    c12.561,12.449,19.458,28.99,19.458,46.566c0,17.583-6.905,34.125-19.443,46.573l-118.29,117.344    c-54.088,53.665-79.462,28.478-90.288,17.732c-14.458-14.354-37.801-14.265-52.162,0.186    c-14.361,14.451-14.271,37.808,0.187,52.154c24.83,24.645,53.173,36.862,82.885,36.862c36.379,0,74.805-18.319,111.34-54.594    l118.29-117.345c26.594-26.408,41.252-61.537,41.252-98.92C595.28,229.83,580.621,194.701,554.012,168.278z"/>
	</g>
</g>
</svg>