<?xml version="1.0" encoding="UTF-8"?>
<!-- Generator: Adobe Illustrator 16.0.4, SVG Export Plug-In . SVG Version: 6.00 Build 0)  -->
<!DOCTYPE svg PUBLIC "-//W3C//DTD SVG 1.0//EN" "http://www.w3.org/TR/2001/REC-SVG-20010904/DTD/svg10.dtd">
<svg version="1.0" id="Capa_1" xmlns="http://www.w3.org/2000/svg" xmlns:xlink="http://www.w3.org/1999/xlink" x="0px" y="0px" width="590.851px" height="601.14px" viewBox="0 117.445 590.851 601.14" enable-background="new 0 117.445 590.851 601.14" xml:space="preserve">
<g>
	<g>
		<path fill="#4D4D4D" d="M410.02,511.896c38.056-41.197,61.797-96.362,61.797-157.112c0-127.436-103.693-231.479-231.479-231.479    C112.554,123.305,8.86,227.348,8.86,354.784s103.694,231.479,231.479,231.479c52.022,0,99.854-17.107,138.607-46.087    l172.125,172.125c4.189,4.189,9.427,6.284,14.664,6.284c5.236,0,10.822-2.095,14.663-6.284c8.031-8.03,8.031-21.297,0-29.677    L410.02,511.896z M50.756,354.784c0-104.393,84.841-189.582,189.582-189.582c104.393,0,189.582,84.84,189.582,189.582    s-84.841,189.582-189.582,189.582S50.756,459.177,50.756,354.784z"/>
	</g>
</g>
</svg>